<svg width="32" height="32" viewBox="0 0 32 32" fill="none" xmlns="http://www.w3.org/2000/svg">
<path d="M31.524 6.58266C30.4107 7.07599 29.2147 7.40933 27.9573 7.55999C29.24 6.79199 30.224 5.57333 30.688 4.12266C29.488 4.83466 28.1587 5.35199 26.744 5.62933C25.6107 4.42399 23.9973 3.66933 22.2107 3.66933C18.7813 3.66933 16 6.45066 16 9.88266C16 10.368 16.056 10.84 16.16 11.296C10.996 11.036 6.42133 8.56266 3.35733 4.80533C2.824 5.72533 2.51733 6.79199 2.51733 7.92799C2.51733 10.0827 3.61467 11.9853 5.28 13.0987C4.26133 13.0653 3.304 12.7867 2.46667 12.3213V12.4013C2.46667 15.4107 4.60667 17.9213 7.44933 18.492C6.92667 18.6333 6.37867 18.708 5.81333 18.708C5.41333 18.708 5.02267 18.6707 4.644 18.5987C5.43467 21.0653 7.728 22.8627 10.4467 22.9107C8.32 24.5773 5.64133 25.5707 2.732 25.5707C2.23067 25.5707 1.736 25.5413 1.24933 25.484C3.99867 27.248 7.26267 28.2747 10.7693 28.2747C22.196 28.2747 28.4427 18.8107 28.4427 10.6027C28.4427 10.336 28.436 10.0667 28.424 9.79999C29.6373 8.92266 30.6907 7.83066 31.5213 6.58666L31.524 6.58266Z" fill="#1DA1F2"/>
</svg>
